<svg width="20" height="20" viewBox="0 0 20 20" fill="none" xmlns="http://www.w3.org/2000/svg">
<path d="M10.6802 4.43867C10.4725 4.53163 10.2423 4.58333 9.99999 4.58333C9.7577 4.58333 9.52749 4.53163 9.31979 4.43867L3.90352 13.2401C4.20816 13.4643 4.43379 13.7897 4.53083 14.1667H15.4692C15.5662 13.7897 15.7918 13.4643 16.0965 13.2401L10.6802 4.43867Z" fill="#835ED3" fill-opacity="0.4"/>
<path d="M1.688 10.6008C2.07639 10.4811 2.48901 10.4167 2.91667 10.4167C3.06216 10.4167 3.2059 10.4241 3.34754 10.4387C3.33812 10.2937 3.33334 10.1474 3.33334 10C3.33334 7.74604 4.45192 5.75329 6.16426 4.54666C5.95121 4.046 5.83334 3.4951 5.83334 2.91666C5.83334 2.87102 5.83409 2.82554 5.83555 2.78025C3.34348 4.22083 1.66667 6.91458 1.66667 10C1.66667 10.202 1.67386 10.4024 1.688 10.6008Z" fill="#835ED3" fill-opacity="0.4"/>
<path d="M16.6667 10C16.6667 7.74604 15.5481 5.75329 13.8358 4.54666C14.0488 4.046 14.1667 3.4951 14.1667 2.91666C14.1667 2.87102 14.1659 2.82554 14.1645 2.78025C16.6565 4.22083 18.3333 6.91458 18.3333 10C18.3333 10.202 18.3261 10.4024 18.312 10.6008C17.9236 10.4811 17.511 10.4167 17.0833 10.4167C16.9378 10.4167 16.7941 10.4241 16.6525 10.4387C16.6619 10.2937 16.6667 10.1474 16.6667 10Z" fill="#835ED3" fill-opacity="0.4"/>
<path d="M13.9558 17.3365C13.5887 16.9198 13.3036 16.4293 13.1257 15.89C12.1934 16.3857 11.1295 16.6667 10 16.6667C8.8705 16.6667 7.80658 16.3857 6.87433 15.89C6.69638 16.4293 6.41129 16.9198 6.04425 17.3365C7.22117 17.9724 8.56842 18.3333 10 18.3333C11.4316 18.3333 12.7788 17.9723 13.9558 17.3365Z" fill="#835ED3" fill-opacity="0.4"/>
<path d="M11.6667 2.91667C11.6667 3.83714 10.9205 4.58333 9.99999 4.58333C9.07954 4.58333 8.33333 3.83714 8.33333 2.91667C8.33333 1.99619 9.07954 1.25 9.99999 1.25C10.9205 1.25 11.6667 1.99619 11.6667 2.91667Z" fill="#835ED3"/>
<path d="M4.58333 14.5833C4.58333 15.5038 3.83714 16.25 2.91667 16.25C1.99619 16.25 1.25 15.5038 1.25 14.5833C1.25 13.6629 1.99619 12.9167 2.91667 12.9167C3.83714 12.9167 4.58333 13.6629 4.58333 14.5833Z" fill="#835ED3"/>
<path d="M17.0833 16.25C18.0038 16.25 18.75 15.5038 18.75 14.5833C18.75 13.6629 18.0038 12.9167 17.0833 12.9167C16.1629 12.9167 15.4167 13.6629 15.4167 14.5833C15.4167 15.5038 16.1629 16.25 17.0833 16.25Z" fill="#835ED3"/>
</svg>
