<svg width="20" height="20" viewBox="0 0 20 20" fill="none" xmlns="http://www.w3.org/2000/svg">
<path d="M5.83333 17.9167C3.76226 17.9167 2.08333 16.2377 2.08333 14.1667C2.08333 12.0956 3.76226 10.4167 5.83333 10.4167C7.90439 10.4167 9.58333 12.0956 9.58333 14.1667C9.58333 16.2377 7.90439 17.9167 5.83333 17.9167ZM14.1667 9.58333C12.0956 9.58333 10.4167 7.90439 10.4167 5.83333C10.4167 3.76226 12.0956 2.08333 14.1667 2.08333C16.2377 2.08333 17.9167 3.76226 17.9167 5.83333C17.9167 7.90439 16.2377 9.58333 14.1667 9.58333ZM5.83333 16.25C6.98392 16.25 7.91666 15.3172 7.91666 14.1667C7.91666 13.0161 6.98392 12.0833 5.83333 12.0833C4.68274 12.0833 3.74999 13.0161 3.74999 14.1667C3.74999 15.3172 4.68274 16.25 5.83333 16.25ZM14.1667 7.91666C15.3172 7.91666 16.25 6.98392 16.25 5.83333C16.25 4.68274 15.3172 3.74999 14.1667 3.74999C13.0161 3.74999 12.0833 4.68274 12.0833 5.83333C12.0833 6.98392 13.0161 7.91666 14.1667 7.91666ZM2.49999 6.66666C2.49999 4.36548 4.36548 2.49999 6.66666 2.49999H9.16666V4.16666H6.66666C5.28595 4.16666 4.16666 5.28595 4.16666 6.66666V9.16666H2.49999V6.66666ZM17.5 10.8333H15.8333V13.3333C15.8333 14.7141 14.7141 15.8333 13.3333 15.8333H10.8333V17.5H13.3333C15.6345 17.5 17.5 15.6345 17.5 13.3333V10.8333Z" fill="url(#paint0_linear_427_48)"/>
<defs>
<linearGradient id="paint0_linear_427_48" x1="9.99999" y1="2.37057" x2="9.99999" y2="16.236" gradientUnits="userSpaceOnUse">
<stop stop-color="white"/>
<stop offset="1" stop-color="#B795FF"/>
</linearGradient>
</defs>
</svg>
