<svg width="20" height="20" viewBox="0 0 20 20" fill="none" xmlns="http://www.w3.org/2000/svg">
<g clip-path="url(#clip0_144_12)">
<path d="M10 4.16666C10.9205 4.16666 11.6667 3.42047 11.6667 2.49999C11.6667 1.57952 10.9205 0.833328 10 0.833328C9.32796 0.833328 8.74883 1.23108 8.48517 1.80401C5.73037 2.30991 3.44955 4.17049 2.35879 6.66958C2.40562 6.66766 2.45269 6.66666 2.5 6.66666C3.05025 6.66666 3.56935 6.79999 4.02678 7.03608C4.92433 5.2307 6.61633 3.88988 8.64529 3.47106C8.94775 3.89229 9.44183 4.16666 10 4.16666Z" fill="#B46C6C" fill-opacity="0.4"/>
<path d="M16.5289 8.64529C16.1101 6.61634 14.7693 4.92434 12.9639 4.02678C13.2 3.56936 13.3333 3.05025 13.3333 2.5C13.3333 2.4527 13.3323 2.40562 13.3304 2.3588C15.8295 3.44955 17.6901 5.73038 18.196 8.48517C18.7689 8.74884 19.1667 9.32796 19.1667 10C19.1667 10.9205 18.4205 11.6667 17.5 11.6667C16.5795 11.6667 15.8333 10.9205 15.8333 10C15.8333 9.44184 16.1077 8.94779 16.5289 8.64529Z" fill="#B46C6C" fill-opacity="0.4"/>
<path d="M17.5 13.3333C17.5473 13.3333 17.5944 13.3323 17.6412 13.3304C16.5505 15.8295 14.2696 17.6901 11.5148 18.196C11.2512 18.7689 10.672 19.1667 10 19.1667C9.07954 19.1667 8.33333 18.4205 8.33333 17.5C8.33333 16.5795 9.07954 15.8333 10 15.8333C10.5582 15.8333 11.0522 16.1077 11.3547 16.5289C13.3837 16.1101 15.0757 14.7693 15.9732 12.9639C16.4307 13.2 16.9497 13.3333 17.5 13.3333Z" fill="#B46C6C" fill-opacity="0.4"/>
<path d="M6.66667 17.5C6.66667 17.5473 6.66767 17.5944 6.66958 17.6412C4.1705 16.5505 2.30992 14.2696 1.80402 11.5148C1.23108 11.2512 0.833332 10.672 0.833332 9.99999C0.833332 9.07954 1.57952 8.33333 2.5 8.33333C3.42047 8.33333 4.16667 9.07954 4.16667 9.99999C4.16667 10.5582 3.89229 11.0522 3.47107 11.3547C3.88988 13.3837 5.23071 15.0757 7.03608 15.9732C6.8 16.4307 6.66667 16.9497 6.66667 17.5Z" fill="#B46C6C" fill-opacity="0.4"/>
<path d="M10 13.3333C11.841 13.3333 13.3333 11.841 13.3333 10C13.3333 8.15905 11.841 6.66667 10 6.66667C8.15904 6.66667 6.66667 8.15905 6.66667 10C6.66667 11.841 8.15904 13.3333 10 13.3333Z" fill="#B46C6C"/>
</g>
<defs>
<clipPath id="clip0_144_12">
<rect width="20" height="20" fill="white"/>
</clipPath>
</defs>
</svg>
