<svg width="20" height="20" viewBox="0 0 20 20" fill="none" xmlns="http://www.w3.org/2000/svg">
<path d="M4.99121 3.81284L2.85003 1.67165L1.67153 2.85016L3.81271 4.99133L4.99121 3.81284Z" fill="#A557B1" fill-opacity="0.4"/>
<path d="M3.81273 15.0087L1.6683 17.1531L2.8468 18.3317L4.99125 16.1872L3.81273 15.0087Z" fill="#A557B1" fill-opacity="0.4"/>
<path d="M15.0086 16.1872L17.1529 18.3315L18.3314 17.153L16.1871 15.0087L15.0086 16.1872Z" fill="#A557B1" fill-opacity="0.4"/>
<path d="M16.1871 4.99137L18.3315 2.84701L17.153 1.6685L15.0086 3.81285L16.1871 4.99137Z" fill="#A557B1" fill-opacity="0.4"/>
<path d="M11.2499 3.72508C11.2499 3.32722 10.7455 3.15568 10.503 3.47103L5.51583 9.95433C5.30508 10.2283 5.50042 10.625 5.84608 10.625H8.74992V16.275C8.74992 16.6728 9.25425 16.8444 9.49683 16.529L14.484 10.0457C14.6948 9.77175 14.4994 9.37504 14.1537 9.37504H11.2499V3.72508Z" fill="#A557B1"/>
</svg>
