<svg width="20" height="20" viewBox="0 0 20 20" fill="none" xmlns="http://www.w3.org/2000/svg">
<path d="M10 2.49991C11.8409 2.49991 13.3333 3.99229 13.3333 5.83324C13.3333 6.28693 13.2431 6.71815 13.0798 7.11106C11.7123 7.25754 10.4198 7.96534 9.56701 9.13884C8.51767 9.00276 7.62064 8.37876 7.11181 7.49883C6.82886 7.00948 6.66666 6.44155 6.66666 5.83324C6.66666 3.99229 8.15904 2.49991 10 2.49991ZM14.8029 7.22697C14.9313 6.78416 15 6.31637 15 5.83324C15 3.07181 12.7614 0.833238 10 0.833237C7.23856 0.833236 4.99999 3.07181 4.99999 5.83324C4.99999 6.31639 5.06873 6.7842 5.19707 7.22702C4.74947 7.3373 4.31001 7.51166 3.89163 7.75321C1.50016 9.13392 0.68079 12.1918 2.0615 14.5833C3.44221 16.9748 6.50016 17.7942 8.89159 16.4135C9.31001 16.1719 9.68076 15.8785 10 15.546C10.3193 15.8785 10.69 16.1718 11.1083 16.4134C13.4998 17.7941 16.5578 16.9748 17.9385 14.5833C19.3192 12.1918 18.4998 9.13384 16.1083 7.75315C15.69 7.5116 15.2505 7.33725 14.8029 7.22697ZM10.9619 14.1118C11.5189 12.8543 11.5523 11.3809 10.9624 10.0556C11.6049 9.21475 12.5938 8.74992 13.6102 8.74925C14.1753 8.74892 14.7483 8.89242 15.275 9.1965C16.8693 10.117 17.4156 12.1557 16.4951 13.7499C15.5746 15.3443 13.536 15.8905 11.9417 14.97C11.5488 14.7433 11.2206 14.4496 10.9619 14.1118ZM9.47076 10.8057C9.87767 11.7825 9.78576 12.8713 9.27809 13.7519C8.99576 14.2416 8.58509 14.6659 8.0583 14.9701C6.46399 15.8906 4.42536 15.3443 3.50488 13.75C2.58441 12.1557 3.13066 10.1171 4.72496 9.19659C5.11786 8.96975 5.53639 8.83226 5.95826 8.77717C6.7689 9.88826 8.02811 10.6538 9.47076 10.8057Z" fill="url(#paint0_linear_427_60)"/>
<defs>
<linearGradient id="paint0_linear_427_60" x1="9.99999" y1="1.12805" x2="9.99999" y2="15.3592" gradientUnits="userSpaceOnUse">
<stop stop-color="white"/>
<stop offset="1" stop-color="#37A16E"/>
</linearGradient>
</defs>
</svg>
