<svg width="20" height="20" viewBox="0 0 20 20" fill="none" xmlns="http://www.w3.org/2000/svg">
<path d="M3.33333 2.5C2.8731 2.5 2.5 2.8731 2.5 3.33333V6.66667H6.66667V2.5H3.33333Z" fill="#437C61" fill-opacity="0.4"/>
<path d="M12.0833 2.5H7.91667V6.66667H12.0833V2.5Z" fill="#437C61" fill-opacity="0.4"/>
<path d="M13.3333 2.5H16.6667C17.1269 2.5 17.5 2.8731 17.5 3.33333V6.66667H13.3333V2.5Z" fill="#437C61" fill-opacity="0.4"/>
<path d="M6.66667 13.3333H2.5V16.6667C2.5 17.1269 2.8731 17.5 3.33333 17.5H6.66667V13.3333Z" fill="#437C61" fill-opacity="0.4"/>
<path d="M7.91667 13.3333H12.0833V17.5H7.91667V13.3333Z" fill="#437C61" fill-opacity="0.4"/>
<path d="M17.5 13.3333H13.3333V17.5H16.6667C17.1269 17.5 17.5 17.1269 17.5 16.6667V13.3333Z" fill="#437C61" fill-opacity="0.4"/>
<path d="M2.5 7.91667H6.66667V12.0833H2.5V7.91667Z" fill="#437C61"/>
<path d="M7.91667 7.91667H12.0833V12.0833H7.91667V7.91667Z" fill="#437C61"/>
<path d="M17.5 7.91667H13.3333V12.0833H17.5V7.91667Z" fill="#437C61"/>
</svg>
