<svg width="20" height="20" viewBox="0 0 20 20" fill="none" xmlns="http://www.w3.org/2000/svg">
<path d="M9.18637 7.36504L12.9036 10.9993L11.3173 15.6834C11.2284 15.946 11.0147 16.1471 10.7473 16.2201L2.26268 18.5341L7.397 13.3997C7.86116 13.6185 8.43283 13.538 8.81812 13.1572C9.30912 12.6719 9.31141 11.8827 8.82325 11.3946C8.33512 10.9064 7.54133 10.9041 7.05033 11.3894C6.66142 11.7738 6.57912 12.3488 6.80433 12.8139L1.67334 17.9449L3.98602 9.46508C4.0597 9.19491 4.26416 8.97979 4.53021 8.89249L9.18637 7.36504Z" fill="#5E79DD" fill-opacity="0.4"/>
<path d="M11.927 2.12424C11.7127 1.90996 11.3486 1.98883 11.2422 2.27258L10.8267 3.38091L16.8175 9.37167L17.929 8.96271C18.2145 8.85767 18.2949 8.49209 18.0798 8.27705L11.927 2.12424Z" fill="#5E79DD"/>
<path d="M9.18606 7.36505L9.18302 7.36605C9.15606 6.37196 9.5256 5.36942 10.2909 4.61301L15.5943 9.91638C14.8502 10.6519 13.8743 11.014 12.9018 11.0035L12.9033 10.9993L9.18606 7.36505Z" fill="#5E79DD"/>
</svg>
