<svg width="20" height="20" viewBox="0 0 20 20" fill="none" xmlns="http://www.w3.org/2000/svg">
<path d="M5.7826 11.694C5.58933 12.2136 5.42527 12.6943 5.27851 13.1796C6.07787 12.5991 7.02953 12.2306 8.12661 12.0934C10.221 11.8317 12.0813 10.4488 13.0232 8.71142L11.8101 7.49907L12.9873 6.32014C13.2654 6.0417 13.5434 5.76345 13.8215 5.4854C14.1792 5.1276 14.5833 4.46541 15.0107 3.51242C10.3497 4.23485 7.4957 7.08873 5.7826 11.694ZM14.1667 7.49783L15 8.33058C14.1667 10.8306 11.6667 13.3306 8.33333 13.7473C6.10955 14.0253 4.72017 15.553 4.1652 18.3306H2.5C3.33333 13.3306 5 1.66391 17.5 1.66391C16.6674 4.16168 15.8348 5.82761 15.0023 6.66168C14.7218 6.94208 14.4442 7.21985 14.1667 7.49783Z" fill="url(#paint0_linear_427_33)"/>
<defs>
<linearGradient id="paint0_linear_427_33" x1="10" y1="1.96627" x2="10" y2="16.5615" gradientUnits="userSpaceOnUse">
<stop stop-color="white"/>
<stop offset="1" stop-color="#6584F4"/>
</linearGradient>
</defs>
</svg>
