<svg width="20" height="20" viewBox="0 0 20 20" fill="none" xmlns="http://www.w3.org/2000/svg">
<path d="M15.3032 12.9463L14.1247 11.7678L15.3032 10.5893C16.9303 8.96209 16.9303 6.32389 15.3032 4.69671C13.676 3.06952 11.0377 3.06952 9.41058 4.69671L8.23207 5.87522L7.05356 4.69671L8.23207 3.51819C10.5102 1.24013 14.2036 1.24013 16.4817 3.51819C18.7597 5.79625 18.7597 9.48967 16.4817 11.7678L15.3032 12.9463ZM12.9461 15.3033L11.7676 16.4818C9.48958 18.7598 5.79609 18.7598 3.51803 16.4818C1.23997 14.2038 1.23997 10.5103 3.51803 8.23224L4.69654 7.05372L5.87505 8.23224L4.69654 9.41076C3.06935 11.0379 3.06935 13.6761 4.69654 15.3033C6.32372 16.9305 8.96191 16.9305 10.5891 15.3033L11.7676 14.1248L12.9461 15.3033ZM12.3568 6.46447L13.5354 7.64298L7.64282 13.5355L6.46431 12.357L12.3568 6.46447Z" fill="url(#paint0_linear_427_39)"/>
<defs>
<linearGradient id="paint0_linear_427_39" x1="9.99986" y1="2.10682" x2="9.99986" y2="16.4516" gradientUnits="userSpaceOnUse">
<stop stop-color="white"/>
<stop offset="1" stop-color="#FFA2AD"/>
</linearGradient>
</defs>
</svg>
