<svg width="20" height="20" viewBox="0 0 20 20" fill="none" xmlns="http://www.w3.org/2000/svg">
<path d="M9.13325 6.77654L11.4904 4.41937C12.6294 3.28036 14.4762 3.28036 15.6152 4.41937C16.7542 5.55841 16.7542 7.40517 15.6152 8.54416L13.258 10.9013L14.4365 12.0798L16.7937 9.72266C18.5836 7.93279 18.5836 5.03079 16.7937 3.24087C15.0038 1.45097 12.1018 1.45097 10.3119 3.24087L7.95471 5.59804L9.13325 6.77654Z" fill="#B8AD90" fill-opacity="0.4"/>
<path d="M6.77621 9.13358L5.59771 7.95504L3.24083 10.312C1.45092 12.1018 1.45092 15.0038 3.24083 16.7937C5.03071 18.5837 7.93275 18.5837 9.72263 16.7937L12.0795 14.4369L10.901 13.2584L8.54413 15.6152C7.40509 16.7543 5.55838 16.7543 4.41934 15.6152C3.28031 14.4762 3.28031 12.6295 4.41934 11.4905L6.77621 9.13358Z" fill="#B8AD90" fill-opacity="0.4"/>
<path d="M6.46442 12.3572L12.357 6.46462L13.5355 7.64316L7.64296 13.5357L6.46442 12.3572Z" fill="#B8AD90"/>
</svg>
