<svg width="20" height="20" viewBox="0 0 20 20" fill="none" xmlns="http://www.w3.org/2000/svg">
<path d="M16.7361 12.6666L17.7378 13.2677C17.9351 13.3861 17.9991 13.642 17.8807 13.8393C17.8455 13.898 17.7964 13.9471 17.7378 13.9823L10.4287 18.3677C10.1647 18.5261 9.83508 18.5261 9.57116 18.3677L2.26209 13.9823C2.06476 13.8638 2.00077 13.6079 2.11917 13.4106C2.15436 13.3519 2.20344 13.3028 2.26209 13.2677L3.26383 12.6666L9.99991 16.7083L16.7361 12.6666ZM16.7361 8.74992L17.7378 9.351C17.9351 9.46942 17.9991 9.72534 17.8807 9.92267C17.8455 9.98134 17.7964 10.0304 17.7378 10.0656L9.99991 14.7083L2.26209 10.0656C2.06476 9.94717 2.00077 9.69125 2.11917 9.49392C2.15436 9.43525 2.20344 9.38617 2.26209 9.351L3.26383 8.74992L9.99991 12.7916L16.7361 8.74992ZM10.4287 1.09054L17.7378 5.476C17.9351 5.59439 17.9991 5.85034 17.8807 6.04766C17.8455 6.10631 17.7964 6.15539 17.7378 6.19058L9.99991 10.8333L2.26209 6.19058C2.06476 6.07219 2.00077 5.81624 2.11917 5.61892C2.15436 5.56027 2.20344 5.51119 2.26209 5.476L9.57116 1.09054C9.83508 0.932203 10.1647 0.932203 10.4287 1.09054ZM9.99991 2.77694L4.90602 5.83329L9.99991 8.88967L15.0938 5.83329L9.99991 2.77694Z" fill="url(#paint0_linear_492_7)"/>
<defs>
<linearGradient id="paint0_linear_492_7" x1="9.99994" y1="1.28953" x2="9.99994" y2="16.6274" gradientUnits="userSpaceOnUse">
<stop stop-color="white"/>
<stop offset="1" stop-color="#B795FF"/>
</linearGradient>
</defs>
</svg>
