<svg width="20" height="20" viewBox="0 0 20 20" fill="none" xmlns="http://www.w3.org/2000/svg">
<path d="M9.99992 1.73013L10.3792 1.92403C11.8507 2.67623 13.1107 3.78178 14.0477 5.12898C14.821 4.76172 15.649 4.49064 16.5161 4.33137L17.5 4.15063V10.8332C17.5 14.9752 14.1422 18.3333 10 18.3333C5.85787 18.3333 2.5 14.9755 2.5 10.8333V4.15063L3.48388 4.33137C4.35096 4.49063 5.17892 4.76169 5.95211 5.12892C6.88922 3.78175 8.14918 2.67622 9.62058 1.92403L9.99992 1.73013ZM7.39798 5.97091C8.42275 6.68876 9.30658 7.59392 10 8.63707C10.6935 7.59398 11.5775 6.68872 12.6019 5.971C11.9127 5.01332 11.0252 4.20773 9.99992 3.61455C8.97475 4.20771 8.08723 5.01327 7.39798 5.97091ZM9.08275 10.3615C8.3485 8.93357 7.21327 7.74437 5.82593 6.94358C5.30558 6.64323 4.74992 6.3976 4.16667 6.21444V10.8333C4.16667 13.575 6.05801 15.8748 8.60708 16.4993C8.42808 15.7503 8.33333 14.9691 8.33333 14.1665C8.33333 12.8192 8.59983 11.5343 9.08275 10.3615ZM10.3776 16.6547C13.4232 16.4601 15.8333 13.928 15.8333 10.8332V6.21444C15.25 6.39762 14.6943 6.64327 14.174 6.94365C11.6773 8.38482 10 11.0803 10 14.1665C10 15.0342 10.1323 15.8697 10.3776 16.6547Z" fill="url(#paint0_linear_429_106)"/>
<defs>
<linearGradient id="paint0_linear_429_106" x1="10" y1="2.03134" x2="10" y2="16.5709" gradientUnits="userSpaceOnUse">
<stop stop-color="white"/>
<stop offset="1" stop-color="#FFA2AD"/>
</linearGradient>
</defs>
</svg>
