<svg width="20" height="20" viewBox="0 0 20 20" fill="none" xmlns="http://www.w3.org/2000/svg">
<path d="M5.83333 4.99999C5.83333 5.19729 5.86726 5.38486 5.92891 5.55831C6.02238 5.82131 5.97797 6.11364 5.81063 6.33702C5.64328 6.56041 5.37521 6.68517 5.09654 6.66938C5.06466 6.66757 5.03248 6.66666 5 6.66666C4.07952 6.66666 3.33333 7.41285 3.33333 8.33332C3.33333 8.76074 3.49311 9.14882 3.75752 9.44424C4.04071 9.76066 4.04071 10.2393 3.75752 10.5557C3.49311 10.8512 3.33333 11.2392 3.33333 11.6667C3.33333 12.4035 3.81206 13.0307 4.47772 13.2501C4.87436 13.3808 5.113 13.7849 5.0359 14.1954C5.01241 14.3205 5 14.4501 5 14.5833C5 15.7339 5.93274 16.6667 7.08333 16.6667C8.13218 16.6667 9.00125 15.8908 9.1455 14.8819C9.1505 14.8471 9.15758 14.813 9.16666 14.7798V4.99999C9.16666 4.07951 8.4205 3.33332 7.5 3.33332C6.57952 3.33332 5.83333 4.07951 5.83333 4.99999ZM10.8333 14.7798C10.8424 14.813 10.8495 14.8471 10.8545 14.8819C10.9987 15.8908 11.8678 16.6667 12.9167 16.6667C14.0672 16.6667 15 15.7339 15 14.5833C15 14.4501 14.9876 14.3205 14.9641 14.1954C14.887 13.7849 15.1257 13.3808 15.5222 13.2501C16.1879 13.0307 16.6667 12.4035 16.6667 11.6667C16.6667 11.2392 16.5069 10.8512 16.2425 10.5557C15.9592 10.2393 15.9592 9.76066 16.2425 9.44424C16.5069 9.14882 16.6667 8.76074 16.6667 8.33332C16.6667 7.41285 15.9205 6.66666 15 6.66666C14.9675 6.66666 14.9353 6.66757 14.9034 6.66938C14.6247 6.68517 14.3567 6.56041 14.1893 6.33702C14.022 6.11364 13.9776 5.82131 14.0711 5.55831C14.1327 5.38486 14.1667 5.19729 14.1667 4.99999C14.1667 4.07951 13.4205 3.33332 12.5 3.33332C11.5795 3.33332 10.8333 4.07951 10.8333 4.99999V14.7798ZM7.5 1.66666C8.49558 1.66666 9.38925 2.10312 10 2.79514C10.6107 2.10312 11.5044 1.66666 12.5 1.66666C14.3409 1.66666 15.8333 3.15904 15.8333 4.99999C15.8333 5.03497 15.8328 5.06984 15.8317 5.10459C17.2702 5.47406 18.3333 6.77954 18.3333 8.33332C18.3333 8.93999 18.1707 9.50966 17.8872 9.99999C18.1707 10.4903 18.3333 11.06 18.3333 11.6667C18.3333 12.9014 17.6624 13.9778 16.6666 14.5538L16.6667 14.5833C16.6667 16.6544 14.9877 18.3333 12.9167 18.3333C11.7382 18.3333 10.6873 17.7901 10 16.9404C9.31266 17.7901 8.26171 18.3333 7.08333 18.3333C5.01226 18.3333 3.33333 16.6544 3.33333 14.5833L3.33345 14.5538C2.3376 13.9778 1.66666 12.9014 1.66666 11.6667C1.66666 11.06 1.82927 10.4903 2.1128 9.99999C1.82927 9.50966 1.66666 8.93999 1.66666 8.33332C1.66666 6.77954 2.72977 5.47406 4.16828 5.10459C4.16721 5.06984 4.16666 5.03497 4.16666 4.99999C4.16666 3.15904 5.65905 1.66666 7.5 1.66666Z" fill="url(#paint0_linear_429_139)"/>
<defs>
<linearGradient id="paint0_linear_429_139" x1="10" y1="1.96902" x2="10" y2="16.5642" gradientUnits="userSpaceOnUse">
<stop stop-color="white"/>
<stop offset="1" stop-color="#37A16E"/>
</linearGradient>
</defs>
</svg>
