<svg width="20" height="20" viewBox="0 0 20 20" fill="none" xmlns="http://www.w3.org/2000/svg">
<path d="M16.6667 18.3333V16.6667H10C6.3181 16.6667 3.33333 13.6819 3.33333 9.99999C3.33333 6.31809 6.3181 3.33332 10 3.33332C13.6819 3.33332 16.6667 6.31809 16.6667 9.99999C16.6667 11.9912 15.7937 13.7784 14.4097 15H16.6672C17.7134 13.6072 18.3333 11.876 18.3333 9.99999C18.3333 5.39761 14.6023 1.66666 10 1.66666C5.39762 1.66666 1.66666 5.39761 1.66666 9.99999C1.66666 14.6023 5.39762 18.3333 10 18.3333H16.6667Z" fill="url(#paint0_linear_429_121)"/>
<path fill-rule="evenodd" clip-rule="evenodd" d="M13.3333 9.99999C13.3333 11.8409 11.8409 13.3333 10 13.3333C8.15905 13.3333 6.66666 11.8409 6.66666 9.99999C6.66666 8.15904 8.15905 6.66666 10 6.66666C11.8409 6.66666 13.3333 8.15904 13.3333 9.99999ZM11.6667 9.99999C11.6667 10.9205 10.9205 11.6667 10 11.6667C9.07952 11.6667 8.33333 10.9205 8.33333 9.99999C8.33333 9.07952 9.07952 8.33332 10 8.33332C10.9205 8.33332 11.6667 9.07952 11.6667 9.99999Z" fill="url(#paint1_linear_429_121)"/>
<defs>
<linearGradient id="paint0_linear_429_121" x1="10" y1="1.96902" x2="10" y2="16.5642" gradientUnits="userSpaceOnUse">
<stop stop-color="white"/>
<stop offset="1" stop-color="#CF933A"/>
</linearGradient>
<linearGradient id="paint1_linear_429_121" x1="10" y1="1.96902" x2="10" y2="16.5642" gradientUnits="userSpaceOnUse">
<stop stop-color="white"/>
<stop offset="1" stop-color="#CF933A"/>
</linearGradient>
</defs>
</svg>
