<svg width="20" height="20" viewBox="0 0 20 20" fill="none" xmlns="http://www.w3.org/2000/svg">
<path d="M14.4008 2.46292C16.8749 2.63201 17.5303 4.41381 17.5999 4.62701L18.6806 4.70633C18.7888 4.70633 18.8215 4.85705 18.7258 4.90352C17.6233 5.50011 17.2865 6.71234 17.4845 7.50198C17.5592 7.7998 17.6955 8.0765 17.8277 8.35201C18.0832 8.88643 18.3701 9.5336 18.4169 10.8361C18.514 13.5353 16.3246 15.9815 13.5929 16.3297C14.5678 15.3407 15.1047 14.2932 15.3594 13.5173C15.8644 11.9792 15.7828 10.7538 15.4048 9.81751C15.0321 8.89435 14.4005 8.32472 13.9197 8.03325C12.5175 7.1834 11.2372 7.1245 10.217 7.39835C10.6044 6.90317 10.9468 6.39735 11.2163 5.84465C11.703 4.47015 11.1318 3.47143 10.6303 2.91272C10.4702 2.70786 10.5792 2.36655 10.8839 2.36655C12.0586 2.36655 13.2281 2.38368 14.4008 2.46292ZM2.76561 15.9223C4.36896 14.0873 6.69292 11.4278 8.73451 9.13035C9.20001 8.60643 11.0416 7.18216 13.5238 8.68668C14.2557 9.13035 15.5491 10.4908 14.6338 13.2791C13.9647 15.317 10.961 19.7751 1.50096 18.1487C1.31176 18.1162 1.07501 17.8535 1.31927 17.5754C1.66496 17.1819 2.16466 16.61 2.76561 15.9223Z" fill="url(#paint0_linear_429_103)"/>
<defs>
<linearGradient id="paint0_linear_429_103" x1="9.99872" y1="2.65921" x2="9.99872" y2="16.7862" gradientUnits="userSpaceOnUse">
<stop stop-color="#31CC79"/>
<stop offset="1" stop-color="#93E65C"/>
</linearGradient>
</defs>
</svg>
