<svg width="112" height="158" viewBox="0 0 112 158" fill="none" xmlns="http://www.w3.org/2000/svg">
<rect width="112" height="158" fill="#1F1F26"/>
<g filter="url(#filter0_f_425_19)">
<rect x="40" y="63" width="32" height="32" rx="4" fill="#62616F" fill-opacity="0.2"/>
</g>
<path d="M56.14 89.0797C56.0252 89.0797 55.9112 89.0447 55.8144 88.9756C55.778 88.9495 52.099 86.3565 47.7137 86.4346H47.7044C47.5645 86.4346 47.4297 86.3822 47.3265 86.2878C47.2233 86.1934 47.1591 86.0638 47.1467 85.9244L46.1012 74.1933C46.0903 74.0713 46.1197 73.9491 46.1849 73.8454C46.2501 73.7418 46.3474 73.6623 46.4621 73.6193C46.5791 73.575 49.4161 72.5768 56.3791 75.8604C56.4751 75.9057 56.5562 75.9774 56.6131 76.0671C56.6699 76.1568 56.7 76.2607 56.7 76.3669V88.52C56.7 88.5936 56.6856 88.6664 56.6574 88.7343C56.6293 88.8023 56.588 88.864 56.536 88.916C56.484 88.968 56.4223 89.0092 56.3543 89.0373C56.2864 89.0654 56.2135 89.0798 56.14 89.0797ZM48.2171 85.3171C51.4676 85.4 54.2276 86.7261 55.58 87.5067V76.7236C50.7735 74.5083 48.1911 74.4875 47.2612 74.5931L48.2171 85.3171Z" fill="#62616F"/>
<path d="M56.14 89.08C56.0665 89.0801 55.9936 89.0657 55.9256 89.0375C55.8577 89.0094 55.7959 88.9682 55.7439 88.9162C55.6919 88.8642 55.6506 88.8024 55.6225 88.7344C55.5944 88.6664 55.5799 88.5936 55.58 88.52V76.3669C55.58 76.2607 55.6102 76.1567 55.6671 76.067C55.7239 75.9773 55.8051 75.9057 55.9012 75.8604C62.8597 72.5785 65.7829 73.5731 65.9033 73.617C66.0198 73.6593 66.1189 73.739 66.1852 73.8436C66.2516 73.9482 66.2813 74.0719 66.2699 74.1952L65.179 85.9264C65.1518 86.2179 64.9049 86.4455 64.6123 86.4343C60.2112 86.3534 56.5007 88.9504 56.4637 88.977C56.3691 89.044 56.256 89.08 56.14 89.08ZM56.7 76.7239V87.512C58.0608 86.7328 60.8493 85.3997 64.1108 85.3171L65.1079 74.5965C64.1519 74.4875 61.5135 74.506 56.7 76.7239Z" fill="#62616F"/>
<path d="M56.1445 76.9263C56.0657 76.9263 55.9877 76.9097 55.9158 76.8774C55.8439 76.8452 55.7795 76.7981 55.7271 76.7393C55.6746 76.6805 55.6351 76.6112 55.6113 76.5361C55.5874 76.461 55.5797 76.3816 55.5887 76.3033C55.6147 76.076 56.3145 70.7142 64.0562 68.9211C64.1284 68.9027 64.2037 68.8989 64.2774 68.91C64.3511 68.9211 64.4219 68.9467 64.4856 68.9855C64.5493 69.0243 64.6046 69.0754 64.6483 69.1359C64.6919 69.1963 64.7231 69.2649 64.7399 69.3375C64.7567 69.4101 64.7589 69.4854 64.7462 69.5589C64.7335 69.6324 64.7063 69.7026 64.6662 69.7654C64.626 69.8282 64.5737 69.8824 64.5123 69.9248C64.451 69.9671 64.3817 69.9968 64.3087 70.012C61.0081 70.7767 59.129 72.2428 58.0647 73.5812C59.5773 72.4413 61.8501 71.305 65.0079 71.1309C65.0813 71.1268 65.1548 71.1373 65.2242 71.1617C65.2936 71.186 65.3575 71.2238 65.4123 71.2729C65.4671 71.3219 65.5117 71.3813 65.5435 71.4476C65.5754 71.5139 65.5938 71.5858 65.5979 71.6592C65.6019 71.7327 65.5915 71.8062 65.5671 71.8756C65.5427 71.945 65.5049 72.0089 65.4559 72.0636C65.4068 72.1184 65.3474 72.163 65.2811 72.1948C65.2148 72.2267 65.1429 72.2452 65.0695 72.2492C59.2052 72.5726 56.7249 76.4926 56.6222 76.6595C56.572 76.741 56.5017 76.8084 56.4181 76.8551C56.3345 76.9018 56.2403 76.9263 56.1445 76.9263Z" fill="#62616F"/>
<path d="M56.2036 76.9269C56.1075 76.9269 56.0131 76.9022 55.9293 76.8552C55.8456 76.8082 55.7753 76.7404 55.7253 76.6584C55.6234 76.4929 53.1435 72.5726 47.2791 72.2492C47.1308 72.2411 46.9919 72.1743 46.8928 72.0637C46.7937 71.953 46.7426 71.8076 46.7508 71.6593C46.759 71.511 46.8257 71.372 46.9363 71.2729C47.047 71.1738 47.1924 71.1227 47.3407 71.1309C50.5341 71.307 52.8226 72.4671 54.3349 73.6201C53.2821 72.2741 51.3979 70.7904 48.0396 70.0123C47.9666 69.9971 47.8974 69.9674 47.836 69.9251C47.7747 69.8827 47.7224 69.8286 47.6822 69.7657C47.642 69.7029 47.6148 69.6327 47.6022 69.5592C47.5895 69.4857 47.5916 69.4104 47.6085 69.3378C47.6253 69.2652 47.6564 69.1966 47.7001 69.1362C47.7438 69.0757 47.7991 69.0246 47.8628 68.9858C47.9264 68.947 47.9972 68.9214 48.071 68.9103C48.1447 68.8992 48.2199 68.903 48.2922 68.9214C56.0336 70.7145 56.7336 76.0763 56.7597 76.3036C56.7685 76.382 56.7608 76.4613 56.7369 76.5364C56.713 76.6116 56.6735 76.6808 56.621 76.7396C56.5685 76.7985 56.5042 76.8455 56.4323 76.8778C56.3604 76.9101 56.2824 76.9268 56.2036 76.9269Z" fill="#62616F"/>
<defs>
<filter id="filter0_f_425_19" x="20" y="43" width="72" height="72" filterUnits="userSpaceOnUse" color-interpolation-filters="sRGB">
<feFlood flood-opacity="0" result="BackgroundImageFix"/>
<feBlend mode="normal" in="SourceGraphic" in2="BackgroundImageFix" result="shape"/>
<feGaussianBlur stdDeviation="10" result="effect1_foregroundBlur_425_19"/>
</filter>
</defs>
</svg>
