<svg width="52" height="20" viewBox="0 0 52 20" fill="none" xmlns="http://www.w3.org/2000/svg">
<path d="M4.55078 9.4375L6.23047 9.24219L6.44531 8.8125C6.96615 7.6276 7.42188 6.72266 7.8125 6.09766C8.47656 5.04297 9.21224 4.22917 10.0195 3.65625C11.0482 2.9401 12.2201 2.58203 13.5352 2.58203C14.0951 2.58203 14.375 2.71224 14.375 2.97266C14.375 3.10286 14.2057 3.57161 13.8672 4.37891C13.75 4.65234 13.4115 5.43359 12.8516 6.72266C12.4089 7.72526 12.1615 8.3112 12.1094 8.48047L13.5742 8.30469C13.6003 8.30469 13.6263 8.31771 13.6523 8.34375C13.6654 8.36979 13.6784 8.38932 13.6914 8.40234L13.4375 9.33984C13.3854 9.49609 13.3008 9.58073 13.1836 9.59375L11.6211 9.80859L11.5234 10.082C11.2109 11.0065 10.9766 11.7682 10.8203 12.3672C10.6771 12.9531 10.6055 13.4219 10.6055 13.7734C10.6055 14.3984 10.8008 14.7109 11.1914 14.7109C11.5169 14.7109 11.9466 14.5612 12.4805 14.2617C13.1966 13.8581 13.9714 13.2331 14.8047 12.3867V14.0469C13.125 15.4271 11.6471 16.1172 10.3711 16.1172C9.91536 16.1172 9.57031 15.9349 9.33594 15.5703C9.11458 15.1927 9.00391 14.7435 9.00391 14.2227C9.00391 13.6888 9.06901 13.1224 9.19922 12.5234C9.32943 11.9245 9.57682 11.0846 9.94141 10.0039L7.07031 10.375C6.65365 11.2344 6.24349 12.0938 5.83984 12.9531C5.31901 13.9427 4.76562 14.6849 4.17969 15.1797C3.42448 15.8177 2.52604 16.1367 1.48438 16.1367C1.09375 16.1367 0.839844 16.0846 0.722656 15.9805C0.61849 15.8633 0.566406 15.6094 0.566406 15.2188C0.566406 14.9323 0.585938 14.75 0.625 14.6719C0.664062 14.5807 0.755208 14.5352 0.898438 14.5352C0.9375 14.5352 1.05469 14.5482 1.25 14.5742C1.45833 14.6003 1.64714 14.6133 1.81641 14.6133C2.55859 14.6133 3.1901 14.3594 3.71094 13.8516C4.3099 13.2656 4.95443 12.1654 5.64453 10.5508L4.10156 10.7266C4.01042 10.7266 3.96484 10.681 3.96484 10.5898L4.14062 9.90625C4.19271 9.71094 4.23828 9.58724 4.27734 9.53516C4.31641 9.49609 4.40755 9.46354 4.55078 9.4375ZM7.61719 9.06641L10.332 8.71484C10.6706 7.85547 10.9375 7.20443 11.1328 6.76172C11.2891 6.41016 11.5365 5.88932 11.875 5.19922C12.0182 4.9388 12.1289 4.73698 12.207 4.59375C12.2852 4.45052 12.3893 4.26172 12.5195 4.02734C12.5195 3.98828 12.5 3.94922 12.4609 3.91016C12.4219 3.87109 12.3698 3.85156 12.3047 3.85156C12.1094 3.85156 11.8294 3.94271 11.4648 4.125C11.1003 4.30729 10.7617 4.52865 10.4492 4.78906C9.98047 5.14062 9.53776 5.62891 9.12109 6.25391C8.71745 6.87891 8.21615 7.81641 7.61719 9.06641Z" fill="white"/>
<path d="M14.3555 12.5039L14.668 12.1328C15.2279 11.5208 15.7031 10.9544 16.0938 10.4336C16.5365 9.84766 16.9466 9.22917 17.3242 8.57812C17.2201 8.48698 17.168 8.38932 17.168 8.28516C17.168 7.85547 17.2656 7.45833 17.4609 7.09375C17.6693 6.72917 17.9688 6.54688 18.3594 6.54688L19.2578 6.58594C19.5052 6.63802 19.6289 6.76172 19.6289 6.95703C19.6289 7.19141 19.5052 7.48438 19.2578 7.83594C19.0234 8.1875 18.8021 8.51302 18.5938 8.8125C18.9974 9.30729 19.2708 9.72396 19.4141 10.0625C19.5703 10.388 19.6484 10.7396 19.6484 11.1172C19.6484 11.6901 19.5443 12.3086 19.3359 12.9727C19.1406 13.6237 18.8607 14.2292 18.4961 14.7891C19.082 14.7891 19.9023 14.3594 20.957 13.5C21.3997 13.1354 21.8424 12.7643 22.2852 12.3867V14.0469L21.9922 14.2812C21.1719 14.8802 20.4948 15.3164 19.9609 15.5898C19.4401 15.8633 18.9844 16 18.5938 16C18.3203 16 17.9622 15.9089 17.5195 15.7266C17.2982 15.8568 17.0508 15.9544 16.7773 16.0195C16.5169 16.0846 16.1914 16.1172 15.8008 16.1172C15.5013 16.1172 15.293 16.0781 15.1758 16C15.0716 15.9089 15.0195 15.7461 15.0195 15.5117C15.0195 15.0951 15.0586 14.7826 15.1367 14.5742C15.2279 14.3659 15.3581 14.2617 15.5273 14.2617C15.6836 14.2617 15.9049 14.2878 16.1914 14.3398C16.4779 14.3919 16.6927 14.418 16.8359 14.418C17.0703 14.418 17.3438 13.9948 17.6562 13.1484C17.9818 12.3021 18.1445 11.625 18.1445 11.1172C18.1445 10.9089 18.125 10.707 18.0859 10.5117C18.0469 10.3164 17.9557 10.1146 17.8125 9.90625C17.1224 10.9349 16.5885 11.6836 16.2109 12.1523C15.7682 12.7122 15.1497 13.3698 14.3555 14.125V12.5039Z" fill="white"/>
<path d="M32.3828 12.3867V14.0469C31.9271 14.3984 31.3867 14.5742 30.7617 14.5742C30.3971 14.5742 30.0651 14.5026 29.7656 14.3594C29.4792 14.2161 29.1732 13.9753 28.8477 13.6367C27.9102 15.3164 26.7057 16.1562 25.2344 16.1562C24.4531 16.1562 23.8411 15.9089 23.3984 15.4141C22.9557 14.9193 22.7344 14.2227 22.7344 13.3242C22.7344 11.8789 23.1576 10.681 24.0039 9.73047C24.8633 8.76693 25.9896 8.28516 27.3828 8.28516L27.3047 9.39844C26.3281 9.54167 25.612 9.9388 25.1562 10.5898C24.7005 11.2279 24.4727 12.0677 24.4727 13.1094C24.4727 14.2943 24.8568 14.8867 25.625 14.8867C26.1068 14.8867 26.569 14.6263 27.0117 14.1055C27.4674 13.5716 27.7604 12.9466 27.8906 12.2305C27.8125 11.957 27.7604 11.7552 27.7344 11.625C27.7214 11.4948 27.7148 11.3516 27.7148 11.1953C27.7148 10.8438 27.7474 10.4596 27.8125 10.043C27.8776 9.6263 28.0013 9.26823 28.1836 8.96875H29.4922C29.5573 9.21615 29.5964 9.44401 29.6094 9.65234C29.6224 9.84766 29.6289 10.0039 29.6289 10.1211C29.6289 10.8372 29.5117 11.5729 29.2773 12.3281C29.9023 12.9661 30.4232 13.2852 30.8398 13.2852C31.3477 13.2852 31.862 12.9857 32.3828 12.3867Z" fill="white"/>
<path d="M32.3438 14.125V12.5039C33.0729 11.7878 33.5872 11.2604 33.8867 10.9219C34.4727 10.2578 34.9089 9.61979 35.1953 9.00781C35.013 8.64323 34.9219 8.35026 34.9219 8.12891C34.9219 7.72526 34.9609 7.41276 35.0391 7.19141C35.1302 6.95703 35.3385 6.83984 35.6641 6.83984C36.1979 6.83984 36.5299 6.87891 36.6602 6.95703C36.7904 7.03516 36.8555 7.21745 36.8555 7.50391C36.8555 7.79036 36.7578 8.19401 36.5625 8.71484C37.2266 8.94922 37.6758 9.13802 37.9102 9.28125C38.4831 9.61979 38.7695 10.1797 38.7695 10.9609C38.7695 11.3385 38.6784 11.7943 38.4961 12.3281C38.0794 13.5391 37.8711 14.2096 37.8711 14.3398C37.8711 14.5612 37.9753 14.6719 38.1836 14.6719C38.7565 14.6719 39.8047 13.9102 41.3281 12.3867V14.0469C39.6745 15.4661 38.3594 16.1758 37.3828 16.1758C37.0182 16.1758 36.7253 16.0326 36.5039 15.7461C36.2826 15.4596 36.1719 15.0885 36.1719 14.6328C36.1719 14.1771 36.3411 13.5456 36.6797 12.7383C37.0182 11.931 37.1875 11.3776 37.1875 11.0781C37.1875 10.4922 36.849 10.0625 36.1719 9.78906C35.7552 10.6484 35.0195 11.5924 33.9648 12.6211C33.6133 12.9596 33.0729 13.4609 32.3438 14.125Z" fill="white"/>
<path d="M42.793 8.28516H44.4531C44.2708 8.76693 44.1146 9.19661 43.9844 9.57422C43.8672 9.95182 43.75 10.362 43.6328 10.8047C44.6224 9.86719 45.3971 9.21615 45.957 8.85156C46.5299 8.47396 47.0312 8.28516 47.4609 8.28516C47.7995 8.28516 48.0859 8.45443 48.3203 8.79297C48.5547 9.13151 48.6719 9.55469 48.6719 10.0625C48.6719 10.4531 48.4505 11.3125 48.0078 12.6406C47.7995 13.2656 47.6953 13.7865 47.6953 14.2031C47.6953 14.5807 47.7995 14.7695 48.0078 14.7695C48.1771 14.7695 48.5417 14.5742 49.1016 14.1836C49.8047 13.6888 50.4622 13.0898 51.0742 12.3867V14.0469L50.6641 14.3984C49.9089 15.0495 49.2904 15.5052 48.8086 15.7656C48.3398 16.026 47.8841 16.1562 47.4414 16.1562C47.0247 16.1562 46.6927 15.9935 46.4453 15.668C46.2109 15.3294 46.0938 14.8802 46.0938 14.3203C46.0938 13.9167 46.1914 13.4219 46.3867 12.8359C46.8164 11.5339 47.0312 10.7331 47.0312 10.4336C47.0312 10.043 46.9336 9.84766 46.7383 9.84766C46.4128 9.84766 45.332 10.7201 43.4961 12.4648L43.2812 12.6602C43.2682 12.8685 43.2552 13.0768 43.2422 13.2852C43.2292 13.4805 43.2227 13.6107 43.2227 13.6758C43.2227 13.8451 43.2227 13.9818 43.2227 14.0859L43.2617 15.6289L43.2812 16.0781H41.7188C41.6667 15.6745 41.6406 15.3034 41.6406 14.9648L41.6016 13.2852C41.6016 12.1003 41.9987 10.4336 42.793 8.28516Z" fill="white"/>
</svg>
