<svg width="88" height="24" viewBox="0 0 88 24" fill="none" xmlns="http://www.w3.org/2000/svg">
<path d="M15.1687 23C19.2963 19.4839 23.2498 9.30189 15.8649 1C17.9039 3.90566 18.2768 8.25194 14.8952 11.6704C12.1899 14.4051 13.9503 20.3629 15.1687 23Z" fill="url(#paint0_linear_424_4)"/>
<path d="M6.83127 1C2.70369 4.5161 -1.24984 14.6981 6.13505 23C4.09612 20.0943 3.72315 15.7481 7.10479 12.3296C9.8101 9.5949 8.04965 3.63707 6.83127 1Z" fill="url(#paint1_linear_424_4)"/>
<path d="M34.582 17.72C33.838 17.72 33.184 17.642 32.62 17.486C32.056 17.33 31.654 17.156 31.414 16.964C30.814 16.496 30.514 15.956 30.514 15.344C30.514 14.828 30.736 14.312 31.18 13.796C31.636 13.268 32.326 12.788 33.25 12.356C34.174 11.912 35.338 11.564 36.742 11.312C37.342 11.204 37.948 11.12 38.56 11.06C39.184 11 39.808 10.97 40.432 10.97C40.96 10.97 41.488 10.994 42.016 11.042C42.556 11.09 43.084 11.168 43.6 11.276C43.768 11.312 43.96 11.36 44.176 11.42C44.392 11.468 44.614 11.528 44.842 11.6C45.838 10.58 46.81 9.566 47.758 8.558C48.706 7.55 49.624 6.698 50.512 6.002C51.136 5.51 51.718 5.174 52.258 4.994C52.798 4.814 53.278 4.724 53.698 4.724C54.19 4.724 54.592 4.802 54.904 4.958C55.228 5.102 55.438 5.222 55.534 5.318C55.57 5.354 55.57 5.39 55.534 5.426C55.498 5.462 55.462 5.462 55.426 5.426C55.366 5.354 55.222 5.276 54.994 5.192C54.766 5.108 54.472 5.066 54.112 5.066C53.668 5.066 53.146 5.168 52.546 5.372C51.946 5.576 51.28 5.96 50.548 6.524C49.648 7.232 48.754 8.048 47.866 8.972C46.99 9.884 46.096 10.802 45.184 11.726C45.652 11.894 46.078 12.122 46.462 12.41C46.858 12.698 47.086 13.052 47.146 13.472V13.544C47.146 13.592 47.134 13.616 47.11 13.616C47.074 13.616 47.038 13.58 47.002 13.508C46.954 13.376 46.816 13.262 46.588 13.166C46.372 13.07 46.12 12.992 45.832 12.932C45.544 12.872 45.268 12.824 45.004 12.788C44.74 12.752 44.542 12.728 44.41 12.716L44.212 12.698C43.216 13.658 42.184 14.546 41.116 15.362C40.06 16.166 38.938 16.772 37.75 17.18C37.186 17.372 36.634 17.51 36.094 17.594C35.566 17.678 35.062 17.72 34.582 17.72ZM48.496 18.602C47.956 18.218 47.56 17.756 47.308 17.216C47.056 16.676 46.93 16.094 46.93 15.47C46.93 14.846 47.038 14.222 47.254 13.598C47.47 12.962 47.782 12.302 48.19 11.618C48.61 10.934 49.066 10.268 49.558 9.62C50.05 8.96 50.524 8.36 50.98 7.82C51.448 7.268 51.838 6.812 52.15 6.452C52.474 6.092 52.666 5.87 52.726 5.786C52.798 5.69 52.852 5.642 52.888 5.642C52.936 5.642 52.972 5.684 52.996 5.768C53.02 5.84 53.032 5.924 53.032 6.02C53.032 6.212 53.002 6.35 52.942 6.434C52.63 6.83 52.258 7.334 51.826 7.946C51.394 8.558 50.956 9.242 50.512 9.998C50.068 10.742 49.654 11.51 49.27 12.302C48.886 13.094 48.574 13.868 48.334 14.624C48.106 15.38 47.992 16.07 47.992 16.694C47.992 17.054 48.04 17.384 48.136 17.684C48.232 17.984 48.388 18.248 48.604 18.476C48.616 18.488 48.622 18.506 48.622 18.53C48.622 18.554 48.61 18.578 48.586 18.602C48.562 18.626 48.532 18.626 48.496 18.602ZM34.636 17.414C35.08 17.414 35.56 17.372 36.076 17.288C36.592 17.216 37.126 17.096 37.678 16.928C38.71 16.604 39.736 16.052 40.756 15.272C41.776 14.492 42.778 13.622 43.762 12.662C43.606 12.65 43.45 12.644 43.294 12.644C43.138 12.644 42.976 12.644 42.808 12.644C41.968 12.644 41.092 12.686 40.18 12.77C39.28 12.854 38.422 12.974 37.606 13.13C36.286 13.358 35.206 13.646 34.366 13.994C33.538 14.33 32.926 14.684 32.53 15.056C32.146 15.428 31.954 15.782 31.954 16.118C31.954 16.442 32.116 16.724 32.44 16.964C32.608 17.084 32.884 17.186 33.268 17.27C33.652 17.366 34.108 17.414 34.636 17.414ZM53.0909 17.198C52.6109 17.198 52.1909 17.108 51.8309 16.928C51.4589 16.736 51.1889 16.388 51.0209 15.884C51.0089 15.836 51.0269 15.806 51.0749 15.794C51.1109 15.782 51.1349 15.806 51.1469 15.866C51.2669 16.13 51.4229 16.316 51.6149 16.424C51.8069 16.532 52.0169 16.586 52.2449 16.586C52.6289 16.586 52.9649 16.472 53.2529 16.244C53.5529 16.016 53.8169 15.728 54.0449 15.38C54.2849 15.032 54.4949 14.678 54.6749 14.318C54.8669 13.946 55.0469 13.628 55.2149 13.364C55.4789 12.92 55.7909 12.518 56.1509 12.158C56.5229 11.798 56.8589 11.576 57.1589 11.492C57.0869 11.456 56.9969 11.438 56.8889 11.438C56.5889 11.438 56.2589 11.528 55.8989 11.708C55.5389 11.888 55.1729 12.122 54.8009 12.41C54.4409 12.698 54.0869 13.004 53.7389 13.328C53.4029 13.64 53.0909 13.934 52.8029 14.21C52.5269 14.474 52.3049 14.684 52.1369 14.84C52.0409 14.924 51.9689 14.966 51.9209 14.966C51.8729 14.966 51.8489 14.942 51.8489 14.894C51.8489 14.822 51.8789 14.756 51.9389 14.696C52.2989 14.384 52.6709 14.036 53.0549 13.652C53.4389 13.256 53.8289 12.878 54.2249 12.518C54.6209 12.146 55.0229 11.84 55.4309 11.6C55.8389 11.36 56.2529 11.24 56.6729 11.24C56.7209 11.24 56.7629 11.24 56.7989 11.24C56.8469 11.24 56.8949 11.246 56.9429 11.258C57.0749 11.27 57.1949 11.306 57.3029 11.366C57.4229 11.426 57.4589 11.468 57.4109 11.492C57.1349 11.612 56.9189 11.852 56.7629 12.212C56.6069 12.572 56.4629 12.992 56.3309 13.472C56.1989 13.952 56.0369 14.438 55.8449 14.93C55.6649 15.422 55.4009 15.86 55.0529 16.244C55.2209 16.184 55.4849 16.046 55.8449 15.83C56.2049 15.614 56.6009 15.35 57.0329 15.038C57.4649 14.714 57.8669 14.36 58.2389 13.976C58.2869 13.928 58.3349 13.904 58.3829 13.904C58.4429 13.904 58.4729 13.934 58.4729 13.994C58.4729 14.042 58.4489 14.09 58.4009 14.138C58.0769 14.45 57.7169 14.786 57.3209 15.146C56.9249 15.494 56.4929 15.824 56.0249 16.136C55.5689 16.448 55.0949 16.706 54.6029 16.91C54.1109 17.102 53.6069 17.198 53.0909 17.198ZM61.4905 17.162C61.0225 17.162 60.6685 17.048 60.4285 16.82C60.2005 16.58 60.0865 16.274 60.0865 15.902C60.0865 15.674 60.1165 15.452 60.1765 15.236C60.2365 15.02 60.3025 14.828 60.3745 14.66C60.2905 14.744 60.2065 14.822 60.1225 14.894C60.0505 14.954 59.9905 15.002 59.9425 15.038C59.8945 15.074 59.8525 15.092 59.8165 15.092C59.7685 15.092 59.7445 15.062 59.7445 15.002C59.7445 14.918 59.8045 14.822 59.9245 14.714C60.3445 14.366 60.6745 14.06 60.9145 13.796C61.1545 13.52 61.4065 13.268 61.6705 13.04C62.1145 12.656 62.5885 12.356 63.0925 12.14C63.5965 11.924 64.1005 11.816 64.6045 11.816C65.1325 11.816 65.5465 11.942 65.8465 12.194C66.1465 12.446 66.2965 12.818 66.2965 13.31C66.2965 13.586 66.2125 13.904 66.0445 14.264C65.8885 14.624 65.6365 14.996 65.2885 15.38C65.1445 15.536 64.9825 15.692 64.8025 15.848C64.6225 15.992 64.4665 16.1 64.3345 16.172C64.9225 16.112 65.4745 15.908 65.9905 15.56C66.5065 15.2 66.9685 14.846 67.3765 14.498C67.4365 14.462 67.4785 14.444 67.5025 14.444C67.5625 14.444 67.5925 14.474 67.5925 14.534C67.5925 14.582 67.5625 14.636 67.5025 14.696C66.9865 15.188 66.4285 15.602 65.8285 15.938C65.2405 16.274 64.5865 16.436 63.8665 16.424C63.4465 16.652 63.0325 16.832 62.6245 16.964C62.2285 17.096 61.8505 17.162 61.4905 17.162ZM62.3005 16.658C62.4685 16.658 62.6485 16.628 62.8405 16.568C63.0325 16.508 63.2245 16.43 63.4165 16.334C63.3445 16.334 63.2725 16.298 63.2005 16.226C63.1405 16.154 63.1105 16.058 63.1105 15.938C63.1105 15.698 63.2005 15.452 63.3805 15.2C63.5605 14.948 63.7825 14.732 64.0465 14.552C64.3105 14.372 64.5685 14.282 64.8205 14.282C64.9645 14.282 65.0965 14.324 65.2165 14.408C65.3485 14.48 65.4205 14.582 65.4325 14.714C65.6365 14.486 65.7745 14.24 65.8465 13.976C65.9305 13.712 65.9725 13.466 65.9725 13.238C65.9725 12.926 65.8705 12.692 65.6665 12.536C65.4745 12.368 65.2105 12.284 64.8745 12.284C64.5505 12.284 64.1905 12.398 63.7945 12.626C63.4105 12.854 63.0445 13.148 62.6965 13.508C62.3605 13.868 62.0785 14.258 61.8505 14.678C61.6345 15.098 61.5265 15.5 61.5265 15.884C61.5265 16.4 61.7845 16.658 62.3005 16.658ZM72.5139 17.018C71.9979 17.018 71.6499 16.922 71.4699 16.73C71.2899 16.526 71.1999 16.304 71.1999 16.064C71.1999 15.752 71.3199 15.422 71.5599 15.074C71.7039 14.87 71.8659 14.642 72.0459 14.39C72.2259 14.126 72.3939 13.88 72.5499 13.652C72.7059 13.424 72.8139 13.262 72.8739 13.166C72.9579 13.046 73.0059 12.968 73.0179 12.932C73.0419 12.884 73.0539 12.836 73.0539 12.788C73.0539 12.716 73.0059 12.65 72.9099 12.59C72.8259 12.518 72.6819 12.482 72.4779 12.482C72.4179 12.482 72.3639 12.488 72.3159 12.5C72.2799 12.5 72.2379 12.5 72.1899 12.5C72.0939 12.5 72.0399 12.494 72.0279 12.482L71.9739 12.554C71.6379 12.998 71.2779 13.436 70.8939 13.868C70.5099 14.288 70.0899 14.678 69.6339 15.038C69.5859 15.074 69.5499 15.092 69.5259 15.092C69.4779 15.092 69.4539 15.068 69.4539 15.02C69.4539 14.924 69.5259 14.816 69.6699 14.696C70.0419 14.384 70.4079 14.036 70.7679 13.652C71.1279 13.256 71.4519 12.842 71.7399 12.41C71.6319 12.338 71.5779 12.194 71.5779 11.978C71.5779 11.654 71.6799 11.306 71.8839 10.934C72.0279 10.682 72.1839 10.496 72.3519 10.376C72.5319 10.244 72.6879 10.178 72.8199 10.178C73.0719 10.178 73.1979 10.328 73.1979 10.628C73.1979 10.82 73.1259 11.06 72.9819 11.348C72.9219 11.492 72.8019 11.678 72.6219 11.906C72.4539 12.122 72.2859 12.278 72.1179 12.374C72.3699 12.29 72.6879 12.236 73.0719 12.212C73.4679 12.176 73.7979 12.158 74.0619 12.158C74.2179 12.158 74.4099 12.206 74.6379 12.302C74.8659 12.386 74.9799 12.542 74.9799 12.77C74.9799 12.926 74.9079 13.094 74.7639 13.274C74.7279 13.322 74.6319 13.436 74.4759 13.616C74.3199 13.796 74.1459 14.012 73.9539 14.264C73.7739 14.516 73.6059 14.768 73.4499 15.02C73.2939 15.248 73.1679 15.458 73.0719 15.65C72.9879 15.842 72.9459 16.004 72.9459 16.136C72.9459 16.328 73.0539 16.424 73.2699 16.424C73.5219 16.424 73.8579 16.304 74.2779 16.064C74.6979 15.824 75.1479 15.518 75.6279 15.146C76.1199 14.762 76.5699 14.366 76.9779 13.958C77.0259 13.91 77.0679 13.886 77.1039 13.886C77.1519 13.886 77.1759 13.916 77.1759 13.976C77.1759 14.048 77.1459 14.114 77.0859 14.174C76.6659 14.594 76.1979 15.026 75.6819 15.47C75.1779 15.902 74.6499 16.268 74.0979 16.568C73.5579 16.868 73.0299 17.018 72.5139 17.018ZM78.7478 17.09C78.6278 17.09 78.4838 17.06 78.3158 17C78.1478 16.952 77.9798 16.856 77.8118 16.712C77.9438 16.532 78.1358 16.292 78.3878 15.992C78.6278 15.68 78.8858 15.338 79.1618 14.966C79.4378 14.594 79.6958 14.222 79.9358 13.85C79.7438 14.042 79.5338 14.246 79.3058 14.462C79.0778 14.678 78.8498 14.876 78.6218 15.056C78.5738 15.104 78.5198 15.128 78.4598 15.128C78.4118 15.128 78.3878 15.104 78.3878 15.056C78.3878 14.996 78.4358 14.924 78.5318 14.84C78.8678 14.54 79.2398 14.198 79.6478 13.814C80.0678 13.418 80.3738 13.016 80.5658 12.608C80.6258 12.464 80.6558 12.332 80.6558 12.212C80.6558 12.056 80.6258 11.96 80.5658 11.924C80.5178 11.888 80.4938 11.84 80.4938 11.78C80.4938 11.672 80.5478 11.618 80.6558 11.618C80.7158 11.618 80.7638 11.63 80.7998 11.654C80.9318 11.714 81.0578 11.828 81.1778 11.996C81.2978 12.164 81.3578 12.416 81.3578 12.752C81.3578 12.944 81.3338 13.166 81.2858 13.418C81.2378 13.658 81.1538 13.934 81.0338 14.246C81.2138 14.006 81.3938 13.772 81.5738 13.544C81.7658 13.316 81.9398 13.112 82.0958 12.932C82.4198 12.56 82.7438 12.296 83.0678 12.14C83.4038 11.972 83.7038 11.888 83.9678 11.888C84.2798 11.888 84.5318 11.978 84.7238 12.158C84.9158 12.338 85.0118 12.572 85.0118 12.86C85.0118 13.088 84.9518 13.322 84.8318 13.562C84.7958 13.658 84.7118 13.808 84.5798 14.012C84.4478 14.204 84.3038 14.414 84.1478 14.642C83.9918 14.87 83.8478 15.074 83.7158 15.254C83.5598 15.446 83.4518 15.614 83.3918 15.758C83.3318 15.89 83.3018 15.998 83.3018 16.082C83.3018 16.202 83.3678 16.262 83.4998 16.262C83.6678 16.262 83.9018 16.172 84.2018 15.992C84.3818 15.884 84.5858 15.74 84.8138 15.56C85.0538 15.368 85.2878 15.176 85.5158 14.984C85.7558 14.78 85.9478 14.612 86.0918 14.48C86.1398 14.432 86.1818 14.408 86.2178 14.408C86.2658 14.408 86.2898 14.438 86.2898 14.498C86.2898 14.57 86.2598 14.636 86.1998 14.696C85.8398 15.032 85.4198 15.398 84.9398 15.794C84.4718 16.19 84.0098 16.496 83.5538 16.712C83.1818 16.892 82.8398 16.982 82.5278 16.982C82.2638 16.982 82.0538 16.916 81.8978 16.784C81.7418 16.64 81.6638 16.436 81.6638 16.172C81.6638 15.98 81.7118 15.752 81.8078 15.488C81.9278 15.164 82.0958 14.84 82.3118 14.516C82.5398 14.192 82.7738 13.886 83.0138 13.598C83.2658 13.298 83.4818 13.046 83.6618 12.842C83.8178 12.674 83.8958 12.53 83.8958 12.41C83.8958 12.302 83.8238 12.248 83.6798 12.248C83.5358 12.248 83.3198 12.332 83.0318 12.5C82.7558 12.656 82.4438 12.914 82.0958 13.274C81.6038 13.79 81.1718 14.348 80.7998 14.948C80.4278 15.548 80.0018 16.112 79.5218 16.64C79.2578 16.94 78.9998 17.09 78.7478 17.09Z" fill="url(#paint2_linear_424_4)"/>
<defs>
<linearGradient id="paint0_linear_424_4" x1="11" y1="1" x2="11" y2="23" gradientUnits="userSpaceOnUse">
<stop stop-color="#E8E8F6"/>
<stop offset="1" stop-color="#E8E8F6" stop-opacity="0.72"/>
</linearGradient>
<linearGradient id="paint1_linear_424_4" x1="11" y1="1" x2="11" y2="23" gradientUnits="userSpaceOnUse">
<stop stop-color="#E8E8F6"/>
<stop offset="1" stop-color="#E8E8F6" stop-opacity="0.72"/>
</linearGradient>
<linearGradient id="paint2_linear_424_4" x1="58.5" y1="3" x2="58.5" y2="21" gradientUnits="userSpaceOnUse">
<stop stop-color="#E8E8F6"/>
<stop offset="1" stop-color="#E8E8F6" stop-opacity="0.72"/>
</linearGradient>
</defs>
</svg>
