<svg width="14" height="14" viewBox="0 0 14 14" fill="none" xmlns="http://www.w3.org/2000/svg">
<g clip-path="url(#clip0_21_160)">
<path d="M6.99992 10.5C5.06692 10.5 3.49992 8.933 3.49992 7.00001C3.49992 5.06701 5.06692 3.50001 6.99992 3.50001C8.93291 3.50001 10.4999 5.06701 10.4999 7.00001C10.4999 8.933 8.93291 10.5 6.99992 10.5ZM6.99992 9.33334C8.28856 9.33334 9.33325 8.28865 9.33325 7.00001C9.33325 5.71135 8.28856 4.66668 6.99992 4.66668C5.71125 4.66668 4.66658 5.71135 4.66658 7.00001C4.66658 8.28865 5.71125 9.33334 6.99992 9.33334ZM6.41658 0.583344H7.58325V2.33334H6.41658V0.583344ZM6.41658 11.6667H7.58325V13.4167H6.41658V11.6667ZM2.05017 2.87522L2.87513 2.05026L4.11256 3.2877L3.28761 4.11266L2.05017 2.87522ZM9.88724 10.7123L10.7123 9.88733L11.9497 11.1248L11.1247 11.9498L9.88724 10.7123ZM11.1247 2.05026L11.9497 2.87522L10.7123 4.11266L9.88724 3.2877L11.1247 2.05026ZM3.28761 9.88733L4.11256 10.7123L2.87513 11.9498L2.05017 11.1248L3.28761 9.88733ZM13.4166 6.41668V7.58334H11.6666V6.41668H13.4166ZM2.33325 6.41668V7.58334H0.583252V6.41668H2.33325Z" fill="#E8E8F6"/>
</g>
<defs>
<clipPath id="clip0_21_160">
<rect width="14" height="14" fill="white"/>
</clipPath>
</defs>
</svg>
