<svg width="40" height="40" viewBox="0 0 40 40" fill="none" xmlns="http://www.w3.org/2000/svg">
<rect x="0.5" y="0.5" width="39" height="39" rx="7.5" stroke="url(#paint0_linear_485_6)"/>
<g clip-path="url(#clip0_485_6)">
<path d="M10.8333 19.1667C15.4357 19.1667 19.1667 15.4357 19.1667 10.8333H20.8333C20.8333 15.4357 24.5643 19.1667 29.1667 19.1667V20.8333C24.5643 20.8333 20.8333 24.5643 20.8333 29.1667H19.1667C19.1667 24.5643 15.4357 20.8333 10.8333 20.8333V19.1667ZM14.8362 20C17.1408 21.0078 18.9922 22.8592 20 25.1638C21.0077 22.8592 22.8592 21.0078 25.1638 20C22.8592 18.9923 21.0077 17.1408 20 14.8362C18.9922 17.1408 17.1408 18.9923 14.8362 20Z" fill="url(#paint1_linear_485_6)"/>
</g>
<defs>
<linearGradient id="paint0_linear_485_6" x1="40" y1="0" x2="0" y2="40" gradientUnits="userSpaceOnUse">
<stop stop-color="white" stop-opacity="0"/>
<stop offset="0.5" stop-color="white" stop-opacity="0.16"/>
<stop offset="1" stop-color="white" stop-opacity="0"/>
</linearGradient>
<linearGradient id="paint1_linear_485_6" x1="20" y1="11.1659" x2="20" y2="27.2207" gradientUnits="userSpaceOnUse">
<stop stop-color="#EB5DE6"/>
<stop offset="1" stop-color="#FFB066"/>
</linearGradient>
<clipPath id="clip0_485_6">
<rect width="20" height="20" fill="white" transform="translate(10 10)"/>
</clipPath>
</defs>
</svg>
