<svg width="40" height="40" viewBox="0 0 40 40" fill="none" xmlns="http://www.w3.org/2000/svg">
<rect x="0.5" y="0.5" width="39" height="39" rx="7.5" stroke="url(#paint0_linear_520_2)"/>
<path d="M22.5 23.3333H17.5V25H22.5V23.3333Z" fill="url(#paint1_linear_520_2)"/>
<path fill-rule="evenodd" clip-rule="evenodd" d="M13.75 12.5C13.75 12.0398 14.1231 11.6667 14.5833 11.6667H25.4167C25.8769 11.6667 26.25 12.0398 26.25 12.5V27.5C26.25 27.9602 25.8769 28.3333 25.4167 28.3333H14.5833C14.1231 28.3333 13.75 27.9602 13.75 27.5V12.5ZM15.4167 26.6667V13.3333H24.5833V26.6667H15.4167Z" fill="url(#paint2_linear_520_2)"/>
<defs>
<linearGradient id="paint0_linear_520_2" x1="40" y1="0" x2="0" y2="40" gradientUnits="userSpaceOnUse">
<stop stop-color="white" stop-opacity="0"/>
<stop offset="0.5" stop-color="white" stop-opacity="0.16"/>
<stop offset="1" stop-color="white" stop-opacity="0"/>
</linearGradient>
<linearGradient id="paint1_linear_520_2" x1="20" y1="11.969" x2="20" y2="26.5642" gradientUnits="userSpaceOnUse">
<stop stop-color="white"/>
<stop offset="1" stop-color="#CF933A"/>
</linearGradient>
<linearGradient id="paint2_linear_520_2" x1="20" y1="11.969" x2="20" y2="26.5642" gradientUnits="userSpaceOnUse">
<stop stop-color="white"/>
<stop offset="1" stop-color="#CF933A"/>
</linearGradient>
</defs>
</svg>
