<svg width="40" height="40" viewBox="0 0 40 40" fill="none" xmlns="http://www.w3.org/2000/svg">
<rect x="0.5" y="0.5" width="39" height="39" rx="7.5" stroke="url(#paint0_linear_496_8)"/>
<path d="M16.5244 26.6667C16.1812 27.6377 15.2552 28.3333 14.1667 28.3333C12.786 28.3333 11.6667 27.2141 11.6667 25.8333C11.6667 24.7448 12.3623 23.8187 13.3333 23.4756V16.5244C12.3623 16.1812 11.6667 15.2552 11.6667 14.1667C11.6667 12.7859 12.786 11.6667 14.1667 11.6667C15.2552 11.6667 16.1812 12.3623 16.5244 13.3333H23.4756C23.8187 12.3623 24.7448 11.6667 25.8333 11.6667C27.2141 11.6667 28.3333 12.7859 28.3333 14.1667C28.3333 15.2552 27.6377 16.1812 26.6667 16.5244V23.4756C27.6377 23.8187 28.3333 24.7448 28.3333 25.8333C28.3333 27.2141 27.2141 28.3333 25.8333 28.3333C24.7448 28.3333 23.8187 27.6377 23.4756 26.6667H16.5244ZM16.5244 25H23.4756C23.7267 24.2897 24.2897 23.7267 25 23.4756V16.5244C24.2897 16.2733 23.7267 15.7103 23.4756 15H16.5244C16.2733 15.7103 15.7103 16.2733 15 16.5244V23.4756C15.7103 23.7267 16.2733 24.2897 16.5244 25ZM14.1667 15C14.6269 15 15 14.6269 15 14.1667C15 13.7064 14.6269 13.3333 14.1667 13.3333C13.7064 13.3333 13.3333 13.7064 13.3333 14.1667C13.3333 14.6269 13.7064 15 14.1667 15ZM25.8333 15C26.2936 15 26.6667 14.6269 26.6667 14.1667C26.6667 13.7064 26.2936 13.3333 25.8333 13.3333C25.3731 13.3333 25 13.7064 25 14.1667C25 14.6269 25.3731 15 25.8333 15ZM25.8333 26.6667C26.2936 26.6667 26.6667 26.2936 26.6667 25.8333C26.6667 25.3731 26.2936 25 25.8333 25C25.3731 25 25 25.3731 25 25.8333C25 26.2936 25.3731 26.6667 25.8333 26.6667ZM14.1667 26.6667C14.6269 26.6667 15 26.2936 15 25.8333C15 25.3731 14.6269 25 14.1667 25C13.7064 25 13.3333 25.3731 13.3333 25.8333C13.3333 26.2936 13.7064 26.6667 14.1667 26.6667Z" fill="url(#paint1_linear_496_8)"/>
<defs>
<linearGradient id="paint0_linear_496_8" x1="40" y1="0" x2="0" y2="40" gradientUnits="userSpaceOnUse">
<stop stop-color="white" stop-opacity="0"/>
<stop offset="0.5" stop-color="white" stop-opacity="0.16"/>
<stop offset="1" stop-color="white" stop-opacity="0"/>
</linearGradient>
<linearGradient id="paint1_linear_496_8" x1="20" y1="11.969" x2="20" y2="26.5642" gradientUnits="userSpaceOnUse">
<stop stop-color="white"/>
<stop offset="1" stop-color="#6584F4"/>
</linearGradient>
</defs>
</svg>
