<svg width="40" height="40" viewBox="0 0 40 40" fill="none" xmlns="http://www.w3.org/2000/svg">
<rect x="0.5" y="0.5" width="39" height="39" rx="7.5" stroke="url(#paint0_linear_485_18)"/>
<path d="M16.6667 26.6667V28.2771C16.6667 28.5072 16.4801 28.6937 16.25 28.6937C16.1525 28.6937 16.0581 28.6596 15.9833 28.5972L12.5508 25.7367C12.374 25.5894 12.3501 25.3267 12.4974 25.1499C12.5766 25.0549 12.6939 25 12.8175 25H25C25.9205 25 26.6667 24.2538 26.6667 23.3333V16.6667H28.3333V23.3333C28.3333 25.1742 26.8409 26.6667 25 26.6667H16.6667ZM23.3333 13.3333V11.7229C23.3333 11.4928 23.5199 11.3062 23.75 11.3062C23.8475 11.3062 23.9418 11.3404 24.0168 11.4028L27.4493 14.2632C27.626 14.4105 27.6499 14.6733 27.5026 14.8501C27.4234 14.9451 27.3062 15 27.1825 15L15 15C14.0795 15 13.3333 15.7462 13.3333 16.6667V23.3333H11.6667V16.6667C11.6667 14.8257 13.1591 13.3333 15 13.3333H23.3333Z" fill="url(#paint1_linear_485_18)"/>
<defs>
<linearGradient id="paint0_linear_485_18" x1="40" y1="0" x2="0" y2="40" gradientUnits="userSpaceOnUse">
<stop stop-color="white" stop-opacity="0"/>
<stop offset="0.5" stop-color="white" stop-opacity="0.16"/>
<stop offset="1" stop-color="white" stop-opacity="0"/>
</linearGradient>
<linearGradient id="paint1_linear_485_18" x1="20" y1="11.6217" x2="20" y2="26.8481" gradientUnits="userSpaceOnUse">
<stop stop-color="white"/>
<stop offset="1" stop-color="#B795FF"/>
</linearGradient>
</defs>
</svg>
