<svg width="40" height="40" viewBox="0 0 40 40" fill="none" xmlns="http://www.w3.org/2000/svg">
<rect x="0.5" y="0.5" width="39" height="39" rx="7.5" stroke="url(#paint0_linear_485_45)"/>
<path d="M16.6667 14.1667H19.1667V25.8333H16.6667V27.5H23.3333V25.8333H20.8333V14.1667H23.3333V12.5H16.6667V14.1667ZM11.6667 15.8333C11.2064 15.8333 10.8333 16.2064 10.8333 16.6667V23.3333C10.8333 23.7936 11.2064 24.1667 11.6667 24.1667H16.6667V22.5H12.5V17.5H16.6667V15.8333H11.6667ZM23.3333 17.5H27.5V22.5H23.3333V24.1667H28.3333C28.7936 24.1667 29.1667 23.7936 29.1667 23.3333V16.6667C29.1667 16.2064 28.7936 15.8333 28.3333 15.8333H23.3333V17.5Z" fill="url(#paint1_linear_485_45)"/>
<defs>
<linearGradient id="paint0_linear_485_45" x1="40" y1="0" x2="0" y2="40" gradientUnits="userSpaceOnUse">
<stop stop-color="white" stop-opacity="0"/>
<stop offset="0.5" stop-color="white" stop-opacity="0.16"/>
<stop offset="1" stop-color="white" stop-opacity="0"/>
</linearGradient>
<linearGradient id="paint1_linear_485_45" x1="20" y1="12.7721" x2="20" y2="25.9078" gradientUnits="userSpaceOnUse">
<stop stop-color="white"/>
<stop offset="1" stop-color="#FFA2AD"/>
</linearGradient>
</defs>
</svg>
